PathFileType	4	(X/Y/Z)	C:/Users/opensim2020/Desktop/walking_exp_matlab/subject01_walking15_straight_04.trc																																																																																																																															
DataRate	CameraRate	NumFrames	NumMarkers	Units	OrigDataRate	OrigDataStartFrame	OrigNumFrames																																																																																																																											
100	100	6	43	mm	100	2146	105																																																																																																																											
Frame#	Time	LFHD			RFHD			LBHD			RBHD			C7			T10			CLAV			STRN			RBAK			LSHO			LUPA			LELB			LFRM			LWRA			LWRB			LFIN			RSHO			RUPA			RELB			RFRM			RWRA			RWRB			RFIN			LASI			RASI			LPSI			RPSI			LTHI			LKNE			LTIB			LANK			LHEE			LTOE			RTHI			RKNE			RTIB			RANK			RHEE			RTOE			*39			*40			*41			*42		
		X1	Y1	Z1	X2	Y2	Z2	X3	Y3	Z3	X4	Y4	Z4	X5	Y5	Z5	X6	Y6	Z6	X7	Y7	Z7	X8	Y8	Z8	X9	Y9	Z9	X10	Y10	Z10	X11	Y11	Z11	X12	Y12	Z12	X13	Y13	Z13	X14	Y14	Z14	X15	Y15	Z15	X16	Y16	Z16	X17	Y17	Z17	X18	Y18	Z18	X19	Y19	Z19	X20	Y20	Z20	X21	Y21	Z21	X22	Y22	Z22	X23	Y23	Z23	X24	Y24	Z24	X25	Y25	Z25	X26	Y26	Z26	X27	Y27	Z27	X28	Y28	Z28	X29	Y29	Z29	X30	Y30	Z30	X31	Y31	Z31	X32	Y32	Z32	X33	Y33	Z33	X34	Y34	Z34	X35	Y35	Z35	X36	Y36	Z36	X37	Y37	Z37	X38	Y38	Z38	X39	Y39	Z39	X40	Y40	Z40	X41	Y41	Z41	X42	Y42	Z42	X43	Y43	Z43
																																																																																																																																		
66	0.65	52.81178	1643.62354	962.09796	103.82227	1651.46118	1064.36926	-57.25604	1612.76941	1012.02374	-6.26998	1620.30359	1120.86414	-95.133	1413.16187	1047.42285	-132.61653	1118.42322	1062.29724	50.55658	1347.62097	1047.10144	94.68874	1193.45703	1043.88684	-150.49138	1219.00696	1124.46899	-15.43765	1379.06592	887.12244	-40.59724	1201.35107	796.80304	-37.3946	1048.56812	779.15552	69.12845	994.80341	768.57159	201.69044	980.57422	802.13696	174.1729	934.35889	777.13556	258.09286	930.59473	772.07037	-14.73925	1379.11987	1199.02112	-118.12346	1194.41565	1291.84277	-137.64465	1075.79163	1301.29163	-162.26025	964.9588	1341.7146	-141.46992	822.71869	1337.97632	-181.82677	846.75403	1372.31995	-182.42938	760.89417	1384.35388	33.05991	909.67303	947.96075	58.77901	918.26294	1160.34229	-144.64767	924.43579	1025.8252	-124.25073	925.20099	1171.20911	-69.02595	582.99384	899.55096	-114.84143	453.88821	911.25439	-265.3912	337.10675	910.58215	-418.70551	178.83176	961.40125	-456.38501	199.65524	1016.81812	-378.30377	36.31807	983.4104	96.59029	599.18329	1227.14514	162.80008	458.59122	1195.36707	143.25101	282.62183	1211.81006	142.22194	74.68735	1169.74976	89.44039	35.43228	1127.70313	282.56442	36.85771	1152.19836	88.00432	1685.25488	1043.75012	-1973.08386	1023.3576	3102.0249	-2012.5022	1022.06354	3140.64233	NaN	NaN	NaN
67	0.66	66.15495	1644.34668	963.1178	117.76189	1652.14661	1065.08386	-43.72786	1613.09839	1013.45697	8.14314	1620.7345	1122.43225	-80.68191	1413.52844	1048.65369	-117.54718	1118.85938	1062.83069	65.09837	1348.40137	1047.93555	109.80054	1194.44604	1044.33032	-135.34286	1219.36353	1125.74744	-1.56804	1379.92639	888.26703	-27.77827	1202.14087	798.16925	-24.8764	1049.49719	780.23004	80.94688	994.89551	768.96906	213.20117	978.05322	802.00867	184.95297	932.57019	776.44183	268.80734	927.61786	771.57367	0.28043	1379.41602	1199.82324	-101.18412	1193.88013	1293.10291	-119.81246	1075.12732	1302.26563	-143.09302	964.16919	1342.4707	-121.19385	822.00366	1338.42285	-161.29454	845.77979	1373.22632	-161.48593	759.51715	1385.00354	48.48925	909.69025	949.36694	73.97478	919.68024	1160.69019	-129.82013	924.78186	1025.3064	-109.28524	926.83215	1170.81104	-47.2844	580.98193	899.1554	-90.04188	451.45288	909.76978	-242.17017	338.49396	908.35364	-400.97723	184.90912	957.72144	-436.71344	209.22719	1012.80341	-372.0513	39.63638	983.26117	112.7953	600.71344	1226.97791	175.04788	457.08118	1195.41553	150.59006	280.23801	1211.90723	143.80591	74.25341	1169.18091	89.93487	35.78448	1127.67883	283.84161	35.74297	1150.63208	102.54245	1685.76855	1044.41748	-1973.14185	1023.49359	3101.97192	-2012.47375	1021.87415	3140.6499	NaN	NaN	NaN
68	0.67	79.38309	1645.17505	964.09637	131.60431	1652.9292	1065.69385	-29.97968	1613.5072	1015.21057	22.58145	1620.97058	1123.60974	-66.60757	1413.75464	1049.76489	-102.85204	1119.19507	1063.23706	79.58427	1349.08057	1048.50452	124.49023	1195.28455	1044.52161	-120.17219	1219.67285	1126.71277	12.38856	1380.75269	889.14685	-15.38333	1203.07349	799.13855	-13.15787	1050.83423	781.06232	92.20455	994.56262	769.26697	224.10951	974.90179	801.84406	195.09203	930.05658	776.0589	278.83664	923.53668	770.86108	15.4536	1380.12634	1200.75183	-84.0606	1193.5603	1294.32544	-101.83508	1074.66675	1303.26038	-123.55135	963.46289	1343.56287	-100.2212	821.32147	1338.77161	-139.95633	844.78955	1374.24109	-139.33817	758.18018	1385.48792	63.60017	909.90869	950.2901	88.7772	921.19525	1161.21912	-114.51894	924.84552	1024.82788	-94.46548	928.58875	1170.146	-24.87306	578.78815	899.04303	-64.42587	448.66949	908.57965	-217.84543	339.0834	906.36743	-381.336	191.4386	955.50232	-416.81125	218.75589	1009.5094	-361.24872	44.91864	982.29938	128.62646	601.83051	1227.37671	186.3466	454.79901	1195.24475	156.7968	278.90213	1212.73914	144.63556	73.84204	1168.69958	90.17546	35.94827	1127.43396	284.38675	35.02713	1150.83875	116.6293	1686.58191	1045.35107	-1973.20508	1023.40881	3101.80005	-2012.4751	1022.15527	3140.73853	NaN	NaN	NaN
69	0.68	92.84278	1646.03577	965.04156	145.65038	1654.02637	1066.47681	-16.06043	1613.8429	1016.6441	36.88723	1621.39734	1124.87048	-52.80536	1414.20459	1051.31445	-88.50066	1119.97644	1063.47656	93.89012	1349.76465	1048.78113	138.73555	1195.97876	1044.56189	-105.12123	1220.19153	1127.54297	25.75068	1381.89282	890.01489	-3.03898	1203.96082	799.96924	-1.44393	1051.93542	782.15552	102.83323	993.83789	769.67169	234.46725	971.07758	801.73505	204.35995	927.04681	775.66888	287.64587	918.83887	770.16638	30.82307	1380.7218	1201.11108	-66.84754	1193.47852	1295.65869	-83.65062	1074.33618	1304.30957	-103.5426	962.65131	1344.47131	-78.1947	820.8316	1338.87585	-118.05276	843.67255	1374.90637	-116.0154	756.94366	1385.90125	78.45756	910.521	950.91949	103.27687	922.73425	1161.80518	-99.9664	924.84711	1024.29822	-80.28024	930.41327	1169.51563	-2.06519	576.55121	899.27826	-38.03318	445.76611	907.75592	-192.27466	339.06714	904.45984	-360.6991	199.04391	954.5332	-395.57376	227.57739	1008.28925	-345.48969	50.94885	980.51117	143.03163	602.32843	1227.823	196.23828	453.05984	1195.48108	161.86546	278.46494	1212.74304	145.10463	73.80746	1168.48792	90.30714	36.17974	1127.25269	284.7218	34.7697	1150.27954	130.02614	1687.47986	1046.51013	-1973.16101	1023.47375	3101.95142	-2012.53027	1021.99902	3140.73047	NaN	NaN	NaN
70	0.69	106.37895	1647.6543	965.90784	159.66064	1655.06787	1066.91199	-2.31958	1614.53784	1017.81921	51.32794	1621.8667	1125.65442	-38.61718	1415.09436	1051.96826	-74.38998	1121.09045	1063.6803	108.15212	1350.53931	1048.83655	152.75285	1196.72327	1044.30176	-90.35411	1221.11572	1128.48425	39.52209	1382.80017	890.36353	9.21776	1204.95911	800.64691	9.78888	1052.8667	783.28473	112.82667	992.7182	770.11108	244.14751	966.6579	801.55212	212.82343	923.47076	775.39874	295.77448	913.1474	769.51141	46.15053	1381.64844	1201.66638	-49.41437	1193.62952	1296.89441	-65.33741	1074.11731	1305.43433	-83.21637	961.7453	1345.34509	-55.62428	820.40717	1338.90137	-95.40408	842.44781	1375.43774	-91.65701	755.88629	1386.1427	92.76759	911.2619	951.11688	117.32833	924.35535	1162.21399	-85.67498	924.83801	1023.79657	-66.22114	931.98987	1168.97803	20.86791	574.87665	899.47052	-10.95293	443.23309	907.15771	-166.36668	339.10617	902.80573	-340.14822	207.02309	954.09717	-373.87268	234.47302	1008.69446	-325.41864	56.75817	978.67957	154.56416	602.53741	1227.94019	204.55983	452.08246	1196.16479	166.18318	278.30594	1212.38062	145.18102	74.13398	1168.54578	90.3133	36.54549	1127.30664	284.80222	34.60475	1150.19312	143.23749	1688.54456	1047.51416	-1973.15833	1023.57159	3102.04565	-2012.50037	1022.07916	3140.67432	NaN	NaN	NaN
71	0.7	119.98462	1648.96155	966.50653	173.66039	1656.15894	1067.09192	11.64572	1615.44458	1018.8067	65.79145	1622.68787	1126.52393	-24.37103	1416.5509	1053.22559	-60.34757	1122.35193	1063.823	122.20274	1351.46484	1048.67322	166.54221	1197.54553	1043.81055	-75.85457	1222.42188	1129.56384	52.48282	1384.07227	890.72314	21.4884	1205.96521	801.18805	20.55308	1053.82678	784.52545	122.20638	991.18628	770.62646	253.17485	961.67401	801.30524	220.51573	919.41052	775.1012	303.11694	906.65948	768.66284	61.38556	1382.63525	1201.79932	-31.94755	1194.0188	1298.19006	-46.92228	1073.99292	1306.53198	-62.50478	960.87231	1346.01245	-32.45506	819.97418	1338.59668	-72.22095	841.27783	1375.83716	-66.46285	754.84467	1385.9679	106.90793	912.21393	951.00262	131.13805	925.93506	1162.54187	-71.59484	924.82617	1023.35242	-52.56746	933.29022	1168.48352	43.95556	573.87561	899.27728	16.16974	441.40976	906.59241	-140.54182	340.11612	901.90332	-316.79788	212.74692	954.66345	-350.98004	239.82645	1009.76007	-302.93781	62.42301	976.51715	162.94231	602.13586	1227.88391	211.50252	451.25366	1197.04504	170.21782	278.26126	1212.27344	145.3728	74.38367	1168.35522	90.32806	36.68951	1126.8761	284.9538	34.43382	1150.26147	156.70915	1689.66895	1048.09424	-1973.20459	1023.53107	3102.0271	-2012.45886	1022.09393	3140.82764	NaN	NaN	NaN
